<?xml version="1.0" ?><!DOCTYPE svg  PUBLIC '-//W3C//DTD SVG 1.1//EN'  'http://www.w3.org/Graphics/SVG/1.1/DTD/svg11.dtd'><svg enable-background="new 0 0 48 48" height="48px" version="1.1" viewBox="0 0 48 48" width="48px" xml:space="preserve" xmlns="http://www.w3.org/2000/svg" xmlns:xlink="http://www.w3.org/1999/xlink"><g id="Layer_4"><g><polygon fill="#241F20" points="16.45,43.795 16.45,34.154 13.926,34.154 13.926,43.795 13.926,44.189 12.644,44.189     15.158,47.974 17.671,44.189 16.45,44.189   "/><polygon fill="#241F20" points="25.361,43.743 25.361,34.154 22.837,34.154 22.837,43.743 22.837,44.189 21.477,44.189     24.099,47.974 26.523,44.189 25.361,44.189   "/><polygon fill="#241F20" points="34.192,43.533 34.192,34.154 31.669,34.154 31.669,43.533 31.669,44.189 30.283,44.189     32.82,47.974 35.356,44.189 34.192,44.189   "/><rect fill="#241F20" height="3.68" width="35.33" x="6.388" y="10.226"/><rect fill="#241F20" height="3.68" width="35.33" x="6.388" y="17.797"/><path d="M45.451,0.026h-0.986H2.55H0.026V2.55v1.788v23.507v1.281v2.523H2.55h3.056h38.189h1.656h2.522v-2.523    v-0.531V2.767V2.55V0.026H45.451z M45.451,5.034v0.907v19.42v0.965v2.761h-0.736h-0.92H2.55V28.85v-2.523v-0.867V24.75V6.276    V5.034V2.511h2.524h0.434h36.79h0.631h2.523V5.034z" fill="#241F20"/></g></g></svg>