<?xml version="1.0" encoding="utf-8"?>
<!-- Generator: Adobe Illustrator 18.0.0, SVG Export Plug-In . SVG Version: 6.00 Build 0)  -->
<!DOCTYPE svg PUBLIC "-//W3C//DTD SVG 1.1//EN" "http://www.w3.org/Graphics/SVG/1.1/DTD/svg11.dtd">
<svg version="1.1" id="Layer_1" xmlns="http://www.w3.org/2000/svg" xmlns:xlink="http://www.w3.org/1999/xlink" x="0px" y="0px"
	 viewBox="0 0 400 400" enable-background="new 0 0 400 400" xml:space="preserve">
<path fill="#FFFFFF" d="M400.4,68.1c0-5-4.1-9.1-9.1-9.1c-2.6,0-4.9,1.1-6.6,2.8l0,0l-239,247.9L15.9,179.8
	c-1.6-1.7-3.9-2.6-6.4-2.6c-5,0-9.1,4.1-9.1,9.1c0,2.5,1,4.8,2.6,6.4l136.4,136.4c1.6,1.7,3.9,2.6,6.4,2.6c2.6,0,4.9-1.1,6.6-2.8
	l0,0L397.9,74.3l0,0C399.4,72.7,400.4,70.6,400.4,68.1z"/>
</svg>
